<svg xmlns="http://www.w3.org/2000/svg" version="1.1" width="435" height="435" viewBox="0 0 435 435"><defs><clipPath id="clip-1"><rect x="45" y="15" width="375" height="375"/></clipPath></defs><path fill="none" stroke="#000000" d="M 45,390 L 45,15" style="stroke-width: 2px;opacity: 0.1" stroke-width="2" opacity="0.1"/><path fill="none" stroke="#000000" d="M 63.75,390 L 63.75,15" style="stroke-width: 2px;opacity: 0.1" stroke-width="2" opacity="0.1"/><path fill="none" stroke="#000000" d="M 82.5,390 L 82.5,15" style="stroke-width: 2px;opacity: 0.1" stroke-width="2" opacity="0.1"/><path fill="none" stroke="#000000" d="M 101.25,390 L 101.25,15" style="stroke-width: 2px;opacity: 0.1" stroke-width="2" opacity="0.1"/><path fill="none" stroke="#000000" d="M 120,390 L 120,15" style="stroke-width: 2px;opacity: 0.1" stroke-width="2" opacity="0.1"/><path fill="none" stroke="#000000" d="M 138.75,390 L 138.75,15" style="stroke-width: 2px;opacity: 0.1" stroke-width="2" opacity="0.1"/><path fill="none" stroke="#000000" d="M 157.5,390 L 157.5,15" style="stroke-width: 2px;opacity: 0.1" stroke-width="2" opacity="0.1"/><path fill="none" stroke="#000000" d="M 176.25,390 L 176.25,15" style="stroke-width: 2px;opacity: 0.1" stroke-width="2" opacity="0.1"/><path fill="none" stroke="#000000" d="M 195,390 L 195,15" style="stroke-width: 2px;opacity: 0.1" stroke-width="2" opacity="0.1"/><path fill="none" stroke="#000000" d="M 213.75,390 L 213.75,15" style="stroke-width: 2px;opacity: 0.1" stroke-width="2" opacity="0.1"/><path fill="none" stroke="#000000" d="M 232.5,390 L 232.5,15" style="stroke-width: 2px;opacity: 0.1" stroke-width="2" opacity="0.1"/><path fill="none" stroke="#000000" d="M 251.25,390 L 251.25,15" style="stroke-width: 2px;opacity: 0.1" stroke-width="2" opacity="0.1"/><path fill="none" stroke="#000000" d="M 270,390 L 270,15" style="stroke-width: 2px;opacity: 0.1" stroke-width="2" opacity="0.1"/><path fill="none" stroke="#000000" d="M 288.75,390 L 288.75,15" style="stroke-width: 2px;opacity: 0.1" stroke-width="2" opacity="0.1"/><path fill="none" stroke="#000000" d="M 307.5,390 L 307.5,15" style="stroke-width: 2px;opacity: 0.1" stroke-width="2" opacity="0.1"/><path fill="none" stroke="#000000" d="M 326.25,390 L 326.25,15" style="stroke-width: 2px;opacity: 0.1" stroke-width="2" opacity="0.1"/><path fill="none" stroke="#000000" d="M 345,390 L 345,15" style="stroke-width: 2px;opacity: 0.1" stroke-width="2" opacity="0.1"/><path fill="none" stroke="#000000" d="M 363.75,390 L 363.75,15" style="stroke-width: 2px;opacity: 0.1" stroke-width="2" opacity="0.1"/><path fill="none" stroke="#000000" d="M 382.5,390 L 382.5,15" style="stroke-width: 2px;opacity: 0.1" stroke-width="2" opacity="0.1"/><path fill="none" stroke="#000000" d="M 401.25,390 L 401.25,15" style="stroke-width: 2px;opacity: 0.1" stroke-width="2" opacity="0.1"/><path fill="none" stroke="#000000" d="M 420,390 L 420,15" style="stroke-width: 2px;opacity: 0.1" stroke-width="2" opacity="0.1"/><path fill="none" stroke="#000000" d="M 45,390 L 420,390" style="stroke-width: 2px;opacity: 0.1" stroke-width="2" opacity="0.1"/><path fill="none" stroke="#000000" d="M 45,376.607 L 420,376.607" style="stroke-width: 2px;opacity: 0.1" stroke-width="2" opacity="0.1"/><path fill="none" stroke="#000000" d="M 45,363.214 L 420,363.214" style="stroke-width: 2px;opacity: 0.1" stroke-width="2" opacity="0.1"/><path fill="none" stroke="#000000" d="M 45,349.821 L 420,349.821" style="stroke-width: 2px;opacity: 0.1" stroke-width="2" opacity="0.1"/><path fill="none" stroke="#000000" d="M 45,336.429 L 420,336.429" style="stroke-width: 2px;opacity: 0.1" stroke-width="2" opacity="0.1"/><path fill="none" stroke="#000000" d="M 45,323.036 L 420,323.036" style="stroke-width: 2px;opacity: 0.1" stroke-width="2" opacity="0.1"/><path fill="none" stroke="#000000" d="M 45,309.643 L 420,309.643" style="stroke-width: 2px;opacity: 0.1" stroke-width="2" opacity="0.1"/><path fill="none" stroke="#000000" d="M 45,296.25 L 420,296.25" style="stroke-width: 2px;opacity: 0.1" stroke-width="2" opacity="0.1"/><path fill="none" stroke="#000000" d="M 45,282.857 L 420,282.857" style="stroke-width: 2px;opacity: 0.1" stroke-width="2" opacity="0.1"/><path fill="none" stroke="#000000" d="M 45,269.464 L 420,269.464" style="stroke-width: 2px;opacity: 0.1" stroke-width="2" opacity="0.1"/><path fill="none" stroke="#000000" d="M 45,256.071 L 420,256.071" style="stroke-width: 2px;opacity: 0.1" stroke-width="2" opacity="0.1"/><path fill="none" stroke="#000000" d="M 45,242.679 L 420,242.679" style="stroke-width: 2px;opacity: 0.1" stroke-width="2" opacity="0.1"/><path fill="none" stroke="#000000" d="M 45,229.286 L 420,229.286" style="stroke-width: 2px;opacity: 0.1" stroke-width="2" opacity="0.1"/><path fill="none" stroke="#000000" d="M 45,215.893 L 420,215.893" style="stroke-width: 2px;opacity: 0.1" stroke-width="2" opacity="0.1"/><path fill="none" stroke="#000000" d="M 45,202.5 L 420,202.5" style="stroke-width: 2px;opacity: 0.1" stroke-width="2" opacity="0.1"/><path fill="none" stroke="#000000" d="M 45,189.107 L 420,189.107" style="stroke-width: 2px;opacity: 0.1" stroke-width="2" opacity="0.1"/><path fill="none" stroke="#000000" d="M 45,175.714 L 420,175.714" style="stroke-width: 2px;opacity: 0.1" stroke-width="2" opacity="0.1"/><path fill="none" stroke="#000000" d="M 45,162.321 L 420,162.321" style="stroke-width: 2px;opacity: 0.1" stroke-width="2" opacity="0.1"/><path fill="none" stroke="#000000" d="M 45,148.929 L 420,148.929" style="stroke-width: 2px;opacity: 0.1" stroke-width="2" opacity="0.1"/><path fill="none" stroke="#000000" d="M 45,135.536 L 420,135.536" style="stroke-width: 2px;opacity: 0.1" stroke-width="2" opacity="0.1"/><path fill="none" stroke="#000000" d="M 45,122.143 L 420,122.143" style="stroke-width: 2px;opacity: 0.1" stroke-width="2" opacity="0.1"/><path fill="none" stroke="#000000" d="M 45,108.75 L 420,108.75" style="stroke-width: 2px;opacity: 0.1" stroke-width="2" opacity="0.1"/><path fill="none" stroke="#000000" d="M 45,95.3571 L 420,95.3571" style="stroke-width: 2px;opacity: 0.1" stroke-width="2" opacity="0.1"/><path fill="none" stroke="#000000" d="M 45,81.9643 L 420,81.9643" style="stroke-width: 2px;opacity: 0.1" stroke-width="2" opacity="0.1"/><path fill="none" stroke="#000000" d="M 45,68.5714 L 420,68.5714" style="stroke-width: 2px;opacity: 0.1" stroke-width="2" opacity="0.1"/><path fill="none" stroke="#000000" d="M 45,55.1786 L 420,55.1786" style="stroke-width: 2px;opacity: 0.1" stroke-width="2" opacity="0.1"/><path fill="none" stroke="#000000" d="M 45,41.7857 L 420,41.7857" style="stroke-width: 2px;opacity: 0.1" stroke-width="2" opacity="0.1"/><path fill="none" stroke="#000000" d="M 45,28.3929 L 420,28.3929" style="stroke-width: 2px;opacity: 0.1" stroke-width="2" opacity="0.1"/><path fill="none" stroke="#000000" d="M 45,15 L 420,15" style="stroke-width: 2px;opacity: 0.1" stroke-width="2" opacity="0.1"/><path fill="none" stroke="#000000" d="M 45,390 L 45,390" style="stroke-width: 2px;opacity: 1" stroke-width="2" opacity="1"/><path fill="none" stroke="#000000" d="M 414.45,395.6 C 414.8,393.5 418.65,390.35 419.7,390 C 418.65,389.65 414.8,386.5 414.45,384.4" transform="" style="stroke-width: 2px;opacity: 1;stroke-linejoin: round;stroke-linecap: round" stroke-width="2" opacity="1" stroke-linejoin="round" stroke-linecap="round"/><path fill="none" stroke="#000000" d="M 45,390 S 45,390 418.95,390" style="stroke-width: 2px;opacity: 1" stroke-width="2" opacity="1"/><path fill="none" stroke="#000000" d="M 45,390 L 45,390" style="stroke-width: 2px;opacity: 1" stroke-width="2" opacity="1"/><path fill="none" stroke="#000000" d="M 40.5,21.65 C 40.85,19.55 44.7,16.4 45.75,16.05 C 44.7,15.7 40.85,12.55 40.5,10.45" transform="rotate(-90 45.75 16.05000000000001)" style="stroke-width: 2px;opacity: 1;stroke-linejoin: round;stroke-linecap: round" stroke-width="2" opacity="1" stroke-linejoin="round" stroke-linecap="round"/><path fill="none" stroke="#000000" d="M 45,390 S 45,390 45,16.05" style="stroke-width: 2px;opacity: 1" stroke-width="2" opacity="1"/><path fill="none" stroke="#000000" d="M 82.5,395 L 82.5,385" style="stroke-width: 1px;opacity: 1" stroke-width="1" opacity="1"/><path fill="none" stroke="#000000" d="M 120,395 L 120,385" style="stroke-width: 1px;opacity: 1" stroke-width="1" opacity="1"/><path fill="none" stroke="#000000" d="M 157.5,395 L 157.5,385" style="stroke-width: 1px;opacity: 1" stroke-width="1" opacity="1"/><path fill="none" stroke="#000000" d="M 195,395 L 195,385" style="stroke-width: 1px;opacity: 1" stroke-width="1" opacity="1"/><path fill="none" stroke="#000000" d="M 232.5,395 L 232.5,385" style="stroke-width: 1px;opacity: 1" stroke-width="1" opacity="1"/><path fill="none" stroke="#000000" d="M 270,395 L 270,385" style="stroke-width: 1px;opacity: 1" stroke-width="1" opacity="1"/><path fill="none" stroke="#000000" d="M 307.5,395 L 307.5,385" style="stroke-width: 1px;opacity: 1" stroke-width="1" opacity="1"/><path fill="none" stroke="#000000" d="M 345,395 L 345,385" style="stroke-width: 1px;opacity: 1" stroke-width="1" opacity="1"/><path fill="none" stroke="#000000" d="M 382.5,395 L 382.5,385" style="stroke-width: 1px;opacity: 1" stroke-width="1" opacity="1"/><path fill="none" stroke="#000000" d="M 40,363.214 L 50,363.214" style="stroke-width: 1px;opacity: 1" stroke-width="1" opacity="1"/><path fill="none" stroke="#000000" d="M 40,336.429 L 50,336.429" style="stroke-width: 1px;opacity: 1" stroke-width="1" opacity="1"/><path fill="none" stroke="#000000" d="M 40,309.643 L 50,309.643" style="stroke-width: 1px;opacity: 1" stroke-width="1" opacity="1"/><path fill="none" stroke="#000000" d="M 40,282.857 L 50,282.857" style="stroke-width: 1px;opacity: 1" stroke-width="1" opacity="1"/><path fill="none" stroke="#000000" d="M 40,256.071 L 50,256.071" style="stroke-width: 1px;opacity: 1" stroke-width="1" opacity="1"/><path fill="none" stroke="#000000" d="M 40,229.286 L 50,229.286" style="stroke-width: 1px;opacity: 1" stroke-width="1" opacity="1"/><path fill="none" stroke="#000000" d="M 40,202.5 L 50,202.5" style="stroke-width: 1px;opacity: 1" stroke-width="1" opacity="1"/><path fill="none" stroke="#000000" d="M 40,175.714 L 50,175.714" style="stroke-width: 1px;opacity: 1" stroke-width="1" opacity="1"/><path fill="none" stroke="#000000" d="M 40,148.929 L 50,148.929" style="stroke-width: 1px;opacity: 1" stroke-width="1" opacity="1"/><path fill="none" stroke="#000000" d="M 40,122.143 L 50,122.143" style="stroke-width: 1px;opacity: 1" stroke-width="1" opacity="1"/><path fill="none" stroke="#000000" d="M 40,95.3571 L 50,95.3571" style="stroke-width: 1px;opacity: 1" stroke-width="1" opacity="1"/><path fill="none" stroke="#000000" d="M 40,68.5714 L 50,68.5714" style="stroke-width: 1px;opacity: 1" stroke-width="1" opacity="1"/><path fill="none" stroke="#000000" d="M 40,41.7857 L 50,41.7857" style="stroke-width: 1px;opacity: 1" stroke-width="1" opacity="1"/><ellipse cx="82.5" cy="363.2142857142857" rx="4" ry="4" fill="#000000" stroke="#000000" style="stroke-width: 2px;stroke-opacity: 1;fill-opacity: 1" stroke-width="2" clip-path="url(#clip-1)" stroke-opacity="1" stroke-dasharray="0" fill-opacity="1"/><ellipse cx="120" cy="357.85714285714283" rx="4" ry="4" fill="#000000" stroke="#000000" style="stroke-width: 2px;stroke-opacity: 1;fill-opacity: 1" stroke-width="2" clip-path="url(#clip-1)" stroke-opacity="1" stroke-dasharray="0" fill-opacity="1"/><ellipse cx="157.5" cy="331.07142857142856" rx="4" ry="4" fill="#000000" stroke="#000000" style="stroke-width: 2px;stroke-opacity: 1;fill-opacity: 1" stroke-width="2" clip-path="url(#clip-1)" stroke-opacity="1" stroke-dasharray="0" fill-opacity="1"/><ellipse cx="195" cy="318.2142857142857" rx="4" ry="4" fill="#000000" stroke="#000000" style="stroke-width: 2px;stroke-opacity: 1;fill-opacity: 1" stroke-width="2" clip-path="url(#clip-1)" stroke-opacity="1" stroke-dasharray="0" fill-opacity="1"/><ellipse cx="232.5" cy="293.57142857142856" rx="4" ry="4" fill="#000000" stroke="#000000" style="stroke-width: 2px;stroke-opacity: 1;fill-opacity: 1" stroke-width="2" clip-path="url(#clip-1)" stroke-opacity="1" stroke-dasharray="0" fill-opacity="1"/><ellipse cx="270" cy="261.42857142857144" rx="4" ry="4" fill="#000000" stroke="#000000" style="stroke-width: 2px;stroke-opacity: 1;fill-opacity: 1" stroke-width="2" clip-path="url(#clip-1)" stroke-opacity="1" stroke-dasharray="0" fill-opacity="1"/><ellipse cx="307.5" cy="205.71428571428572" rx="4" ry="4" fill="#000000" stroke="#000000" style="stroke-width: 2px;stroke-opacity: 1;fill-opacity: 1" stroke-width="2" clip-path="url(#clip-1)" stroke-opacity="1" stroke-dasharray="0" fill-opacity="1"/><ellipse cx="345" cy="122.14285714285714" rx="4" ry="4" fill="#000000" stroke="#000000" style="stroke-width: 2px;stroke-opacity: 1;fill-opacity: 1" stroke-width="2" clip-path="url(#clip-1)" stroke-opacity="1" stroke-dasharray="0" fill-opacity="1"/><ellipse cx="382.5" cy="47.14285714285714" rx="4" ry="4" fill="#000000" stroke="#000000" style="stroke-width: 2px;stroke-opacity: 1;fill-opacity: 1" stroke-width="2" clip-path="url(#clip-1)" stroke-opacity="1" stroke-dasharray="0" fill-opacity="1"/><path fill="none" stroke="#808080" d="M 45,370.607 L 45.5,370.524 L 46,370.44 L 46.5,370.356 L 47,370.271 L 47.5,370.186 L 48,370.101 L 48.5,370.015 L 49,369.929 L 49.5,369.843 L 50,369.756 L 50.5,369.669 L 51,369.582 L 51.5,369.494 L 52,369.405 L 52.5,369.317 L 53,369.228 L 53.5,369.138 L 54,369.049 L 54.5,368.958 L 55,368.868 L 55.5,368.777 L 56,368.686 L 56.5,368.594 L 57,368.502 L 57.5,368.409 L 58,368.316 L 58.5,368.223 L 59,368.129 L 59.5,368.035 L 60,367.941 L 60.5,367.846 L 61,367.75 L 61.5,367.655 L 62,367.558 L 62.5,367.462 L 63,367.365 L 63.5,367.267 L 64,367.17 L 64.5,367.071 L 65,366.973 L 65.5,366.874 L 66,366.774 L 66.5,366.674 L 67,366.574 L 67.5,366.473 L 68,366.372 L 68.5,366.27 L 69,366.168 L 69.5,366.065 L 70,365.962 L 70.5,365.859 L 71,365.755 L 71.5,365.651 L 72,365.546 L 72.5,365.44 L 73,365.335 L 73.5,365.229 L 74,365.122 L 74.5,365.015 L 75,364.907 L 75.5,364.799 L 76,364.691 L 76.5,364.582 L 77,364.473 L 77.5,364.363 L 78,364.252 L 78.5,364.142 L 79,364.03 L 79.5,363.919 L 80,363.806 L 80.5,363.694 L 81,363.58 L 81.5,363.467 L 82,363.353 L 82.5,363.238 L 83,363.123 L 83.5,363.007 L 84,362.891 L 84.5,362.774 L 85,362.657 L 85.5,362.539 L 86,362.421 L 86.5,362.302 L 87,362.183 L 87.5,362.064 L 88,361.943 L 88.5,361.823 L 89,361.701 L 89.5,361.58 L 90,361.457 L 90.5,361.334 L 91,361.211 L 91.5,361.087 L 92,360.963 L 92.5,360.838 L 93,360.712 L 93.5,360.586 L 94,360.46 L 94.5,360.332 L 95,360.205 L 95.5,360.077 L 96,359.948 L 96.5,359.818 L 97,359.688 L 97.5,359.558 L 98,359.427 L 98.5,359.295 L 99,359.163 L 99.5,359.031 L 100,358.897 L 100.5,358.763 L 101,358.629 L 101.5,358.494 L 102,358.358 L 102.5,358.222 L 103,358.085 L 103.5,357.948 L 104,357.81 L 104.5,357.672 L 105,357.533 L 105.5,357.393 L 106,357.252 L 106.5,357.112 L 107,356.97 L 107.5,356.828 L 108,356.685 L 108.5,356.542 L 109,356.398 L 109.5,356.253 L 110,356.108 L 110.5,355.962 L 111,355.816 L 111.5,355.668 L 112,355.521 L 112.5,355.372 L 113,355.223 L 113.5,355.074 L 114,354.923 L 114.5,354.772 L 115,354.621 L 115.5,354.468 L 116,354.316 L 116.5,354.162 L 117,354.008 L 117.5,353.853 L 118,353.697 L 118.5,353.541 L 119,353.384 L 119.5,353.227 L 120,353.068 L 120.5,352.909 L 121,352.75 L 121.5,352.589 L 122,352.428 L 122.5,352.267 L 123,352.104 L 123.5,351.941 L 124,351.777 L 124.5,351.613 L 125,351.448 L 125.5,351.282 L 126,351.115 L 126.5,350.948 L 127,350.78 L 127.5,350.611 L 128,350.441 L 128.5,350.271 L 129,350.1 L 129.5,349.928 L 130,349.756 L 130.5,349.583 L 131,349.409 L 131.5,349.234 L 132,349.059 L 132.5,348.883 L 133,348.706 L 133.5,348.528 L 134,348.349 L 134.5,348.17 L 135,347.99 L 135.5,347.809 L 136,347.628 L 136.5,347.445 L 137,347.262 L 137.5,347.078 L 138,346.894 L 138.5,346.708 L 139,346.522 L 139.5,346.335 L 140,346.147 L 140.5,345.958 L 141,345.768 L 141.5,345.578 L 142,345.387 L 142.5,345.195 L 143,345.002 L 143.5,344.808 L 144,344.614 L 144.5,344.419 L 145,344.222 L 145.5,344.025 L 146,343.828 L 146.5,343.629 L 147,343.429 L 147.5,343.229 L 148,343.028 L 148.5,342.825 L 149,342.622 L 149.5,342.418 L 150,342.214 L 150.5,342.008 L 151,341.802 L 151.5,341.594 L 152,341.386 L 152.5,341.177 L 153,340.966 L 153.5,340.755 L 154,340.543 L 154.5,340.331 L 155,340.117 L 155.5,339.902 L 156,339.687 L 156.5,339.47 L 157,339.253 L 157.5,339.034 L 158,338.815 L 158.5,338.595 L 159,338.373 L 159.5,338.151 L 160,337.928 L 160.5,337.704 L 161,337.479 L 161.5,337.253 L 162,337.026 L 162.5,336.798 L 163,336.569 L 163.5,336.339 L 164,336.108 L 164.5,335.876 L 165,335.643 L 165.5,335.409 L 166,335.174 L 166.5,334.938 L 167,334.701 L 167.5,334.463 L 168,334.224 L 168.5,333.984 L 169,333.743 L 169.5,333.501 L 170,333.258 L 170.5,333.014 L 171,332.768 L 171.5,332.522 L 172,332.275 L 172.5,332.026 L 173,331.777 L 173.5,331.526 L 174,331.275 L 174.5,331.022 L 175,330.768 L 175.5,330.513 L 176,330.257 L 176.5,330 L 177,329.742 L 177.5,329.482 L 178,329.222 L 178.5,328.96 L 179,328.698 L 179.5,328.434 L 180,328.169 L 180.5,327.903 L 181,327.636 L 181.5,327.367 L 182,327.098 L 182.5,326.827 L 183,326.555 L 183.5,326.282 L 184,326.008 L 184.5,325.732 L 185,325.456 L 185.5,325.178 L 186,324.899 L 186.5,324.619 L 187,324.338 L 187.5,324.055 L 188,323.771 L 188.5,323.486 L 189,323.2 L 189.5,322.912 L 190,322.624 L 190.5,322.334 L 191,322.042 L 191.5,321.75 L 192,321.456 L 192.5,321.161 L 193,320.865 L 193.5,320.567 L 194,320.269 L 194.5,319.969 L 195,319.667 L 195.5,319.364 L 196,319.06 L 196.5,318.755 L 197,318.449 L 197.5,318.141 L 198,317.831 L 198.5,317.521 L 199,317.209 L 199.5,316.896 L 200,316.581 L 200.5,316.265 L 201,315.948 L 201.5,315.629 L 202,315.309 L 202.5,314.987 L 203,314.665 L 203.5,314.34 L 204,314.015 L 204.5,313.688 L 205,313.359 L 205.5,313.03 L 206,312.698 L 206.5,312.366 L 207,312.031 L 207.5,311.696 L 208,311.359 L 208.5,311.02 L 209,310.681 L 209.5,310.339 L 210,309.996 L 210.5,309.652 L 211,309.306 L 211.5,308.959 L 212,308.61 L 212.5,308.26 L 213,307.908 L 213.5,307.555 L 214,307.2 L 214.5,306.844 L 215,306.486 L 215.5,306.126 L 216,305.765 L 216.5,305.403 L 217,305.039 L 217.5,304.673 L 218,304.306 L 218.5,303.937 L 219,303.567 L 219.5,303.195 L 220,302.821 L 220.5,302.446 L 221,302.069 L 221.5,301.691 L 222,301.311 L 222.5,300.929 L 223,300.546 L 223.5,300.161 L 224,299.774 L 224.5,299.386 L 225,298.996 L 225.5,298.604 L 226,298.211 L 226.5,297.816 L 227,297.419 L 227.5,297.021 L 228,296.62 L 228.5,296.219 L 229,295.815 L 229.5,295.41 L 230,295.003 L 230.5,294.594 L 231,294.183 L 231.5,293.771 L 232,293.357 L 232.5,292.941 L 233,292.523 L 233.5,292.103 L 234,291.682 L 234.5,291.259 L 235,290.834 L 235.5,290.407 L 236,289.979 L 236.5,289.548 L 237,289.116 L 237.5,288.682 L 238,288.246 L 238.5,287.808 L 239,287.368 L 239.5,286.926 L 240,286.483 L 240.5,286.037 L 241,285.59 L 241.5,285.14 L 242,284.689 L 242.5,284.236 L 243,283.781 L 243.5,283.324 L 244,282.864 L 244.5,282.403 L 245,281.94 L 245.5,281.475 L 246,281.008 L 246.5,280.539 L 247,280.068 L 247.5,279.595 L 248,279.12 L 248.5,278.643 L 249,278.163 L 249.5,277.682 L 250,277.199 L 250.5,276.713 L 251,276.226 L 251.5,275.736 L 252,275.244 L 252.5,274.75 L 253,274.254 L 253.5,273.756 L 254,273.256 L 254.5,272.754 L 255,272.249 L 255.5,271.742 L 256,271.233 L 256.5,270.722 L 257,270.209 L 257.5,269.693 L 258,269.175 L 258.5,268.656 L 259,268.133 L 259.5,267.609 L 260,267.082 L 260.5,266.553 L 261,266.022 L 261.5,265.488 L 262,264.952 L 262.5,264.414 L 263,263.874 L 263.5,263.331 L 264,262.786 L 264.5,262.238 L 265,261.688 L 265.5,261.136 L 266,260.582 L 266.5,260.025 L 267,259.465 L 267.5,258.904 L 268,258.339 L 268.5,257.773 L 269,257.204 L 269.5,256.632 L 270,256.058 L 270.5,255.482 L 271,254.903 L 271.5,254.321 L 272,253.737 L 272.5,253.151 L 273,252.562 L 273.5,251.971 L 274,251.377 L 274.5,250.78 L 275,250.181 L 275.5,249.579 L 276,248.975 L 276.5,248.368 L 277,247.758 L 277.5,247.146 L 278,246.531 L 278.5,245.914 L 279,245.294 L 279.5,244.671 L 280,244.046 L 280.5,243.417 L 281,242.787 L 281.5,242.153 L 282,241.517 L 282.5,240.878 L 283,240.236 L 283.5,239.591 L 284,238.944 L 284.5,238.294 L 285,237.641 L 285.5,236.985 L 286,236.327 L 286.5,235.665 L 287,235.001 L 287.5,234.334 L 288,233.664 L 288.5,232.991 L 289,232.316 L 289.5,231.637 L 290,230.956 L 290.5,230.271 L 291,229.584 L 291.5,228.893 L 292,228.2 L 292.5,227.504 L 293,226.804 L 293.5,226.102 L 294,225.397 L 294.5,224.688 L 295,223.977 L 295.5,223.262 L 296,222.545 L 296.5,221.824 L 297,221.1 L 297.5,220.373 L 298,219.643 L 298.5,218.91 L 299,218.174 L 299.5,217.434 L 300,216.692 L 300.5,215.946 L 301,215.197 L 301.5,214.444 L 302,213.689 L 302.5,212.93 L 303,212.168 L 303.5,211.403 L 304,210.634 L 304.5,209.862 L 305,209.087 L 305.5,208.308 L 306,207.526 L 306.5,206.741 L 307,205.952 L 307.5,205.16 L 308,204.365 L 308.5,203.566 L 309,202.763 L 309.5,201.958 L 310,201.148 L 310.5,200.336 L 311,199.519 L 311.5,198.7 L 312,197.876 L 312.5,197.049 L 313,196.219 L 313.5,195.385 L 314,194.548 L 314.5,193.706 L 315,192.862 L 315.5,192.013 L 316,191.161 L 316.5,190.305 L 317,189.446 L 317.5,188.583 L 318,187.716 L 318.5,186.845 L 319,185.971 L 319.5,185.093 L 320,184.211 L 320.5,183.326 L 321,182.436 L 321.5,181.543 L 322,180.646 L 322.5,179.745 L 323,178.84 L 323.5,177.931 L 324,177.018 L 324.5,176.102 L 325,175.181 L 325.5,174.257 L 326,173.328 L 326.5,172.396 L 327,171.459 L 327.5,170.519 L 328,169.574 L 328.5,168.625 L 329,167.673 L 329.5,166.716 L 330,165.755 L 330.5,164.79 L 331,163.821 L 331.5,162.847 L 332,161.87 L 332.5,160.888 L 333,159.902 L 333.5,158.912 L 334,157.917 L 334.5,156.918 L 335,155.915 L 335.5,154.908 L 336,153.896 L 336.5,152.88 L 337,151.859 L 337.5,150.834 L 338,149.805 L 338.5,148.771 L 339,147.733 L 339.5,146.691 L 340,145.643 L 340.5,144.592 L 341,143.536 L 341.5,142.475 L 342,141.41 L 342.5,140.34 L 343,139.265 L 343.5,138.186 L 344,137.103 L 344.5,136.014 L 345,134.921 L 345.5,133.823 L 346,132.721 L 346.5,131.614 L 347,130.502 L 347.5,129.385 L 348,128.263 L 348.5,127.137 L 349,126.005 L 349.5,124.869 L 350,123.728 L 350.5,122.582 L 351,121.431 L 351.5,120.276 L 352,119.115 L 352.5,117.949 L 353,116.778 L 353.5,115.602 L 354,114.421 L 354.5,113.235 L 355,112.044 L 355.5,110.848 L 356,109.647 L 356.5,108.44 L 357,107.228 L 357.5,106.011 L 358,104.789 L 358.5,103.562 L 359,102.329 L 359.5,101.091 L 360,99.8476 L 360.5,98.5989 L 361,97.3448 L 361.5,96.0853 L 362,94.8204 L 362.5,93.55 L 363,92.2742 L 363.5,90.9929 L 364,89.7061 L 364.5,88.4137 L 365,87.1158 L 365.5,85.8122 L 366,84.5031 L 366.5,83.1884 L 367,81.8679 L 367.5,80.5418 L 368,79.21 L 368.5,77.8725 L 369,76.5292 L 369.5,75.1801 L 370,73.8252 L 370.5,72.4645 L 371,71.0979 L 371.5,69.7255 L 372,68.3471 L 372.5,66.9628 L 373,65.5726 L 373.5,64.1764 L 374,62.7741 L 374.5,61.3658 L 375,59.9515 L 375.5,58.5311 L 376,57.1045 L 376.5,55.6719 L 377,54.233 L 377.5,52.788 L 378,51.3367 L 378.5,49.8792 L 379,48.4155 L 379.5,46.9454 L 380,45.469 L 380.5,43.9862 L 381,42.4971 L 381.5,41.0016 L 382,39.4996 L 382.5,37.9912 L 383,36.4762 L 383.5,34.9548 L 384,33.4268 L 384.5,31.8922 L 385,30.351 L 385.5,28.8032 L 386,27.2487 L 386.5,25.6876 L 387,24.1197 L 387.5,22.545 L 388,20.9636 L 388.5,19.3754 L 389,17.7804 L 389.5,16.1784 L 390,14.5696 L 390.5,12.9539 L 391,11.3312 L 391.5,9.70155 L 392,8.06487 L 392.5,6.42114 L 393,4.77034 L 393.5,3.11243 L 394,1.44739 L 394.5,-0.224815 L 395,-1.90422 L 395.5,-3.59085 L 396,-5.28474 L 396.5,-6.98592 L 397,-8.69442 L 397.5,-10.4103 L 398,-12.1335 L 398.5,-13.8642 L 399,-15.6023 L 399.5,-17.3478 L 400,-19.1009 L 400.5,-20.8616 L 401,-22.6298 L 401.5,-24.4056 L 402,-26.1891 L 402.5,-27.9802 L 403,-29.7791 L 403.5,-31.5857 L 404,-33.4001 L 404.5,-35.2222 L 405,-37.0523 L 405.5,-38.8902 L 406,-40.736 L 406.5,-42.5897 L 407,-44.4514 L 407.5,-46.3212 L 408,-48.199 L 408.5,-50.0848 L 409,-51.9788 L 409.5,-53.881 L 410,-55.7913 L 410.5,-57.7098 L 411,-59.6366 L 411.5,-61.5717 L 412,-63.5151 L 412.5,-65.4669 L 413,-67.4271 L 413.5,-69.3957 L 414,-71.3728 L 414.5,-73.3584 L 415,-75.3526 L 415.5,-77.3553 L 416,-79.3666 L 416.5,-81.3867 L 417,-83.4153 L 417.5,-85.4528 L 418,-87.499 L 418.5,-89.554 L 419,-91.6178 L 419.5,-93.6906" style="stroke-width: 2px" stroke-width="2" clip-path="url(#clip-1)"/></svg>